<svg xmlns="http://www.w3.org/2000/svg" viewBox="0 0 10.77 13.05"><defs><style>.cls-1{fill:#353535;}.cls-2{fill:#fff;}</style></defs><title>Asset 1</title><g id="Layer_2" data-name="Layer 2"><g id="Layer_1-2" data-name="Layer 1"><path class="cls-1" d="M9.81,5.48H9.36v-2A3.06,3.06,0,0,0,9,2.11,3.46,3.46,0,0,0,8.19,1,4,4,0,0,0,6.93.27a4.53,4.53,0,0,0-3.09,0A4,4,0,0,0,2.58,1a3.46,3.46,0,0,0-.85,1.1,3.06,3.06,0,0,0-.31,1.35v2H1a.91.91,0,0,0-1,.84v5.9A.91.91,0,0,0,1,13H9.81a.91.91,0,0,0,1-.84V6.31A.91.91,0,0,0,9.81,5.48Zm-7.65-2A3,3,0,0,1,5.38.65,3,3,0,0,1,8.61,3.46v2H2.16Z"/><circle class="cls-2" cx="5.38" cy="8.29" r="1.01"/><rect class="cls-2" x="4.94" y="8.75" width="0.9" height="2.18"/></g></g></svg>