<svg xmlns="http://www.w3.org/2000/svg" viewBox="0 0 23.21 23.21"><defs><style>.cls-1{fill:#fff;}</style></defs><title>Asset 2</title><g id="Layer_2" data-name="Layer 2"><g id="Layer_1-2" data-name="Layer 1"><path class="cls-1" d="M11.61,0A11.61,11.61,0,1,0,23.21,11.61,11.62,11.62,0,0,0,11.61,0Zm0,22.32A10.71,10.71,0,1,1,22.32,11.61,10.73,10.73,0,0,1,11.61,22.32Zm0,0"/><path class="cls-1" d="M17.19,11.16H12.05V6.25a.45.45,0,0,0-.89,0v4.91H6a.45.45,0,1,0,0,.89h5.13v5.36a.45.45,0,1,0,.89,0V12.05h5.13a.45.45,0,1,0,0-.89Zm0,0"/></g></g></svg>